<svg width="432" height="2063" viewBox="0 0 432 2063" fill="none" xmlns="http://www.w3.org/2000/svg">
<path d="M28 779L34.5 761L59.5 747L108 733L176.5 725H251L323 733L378 747L402.5 761L406.5 779M39.5 795L45 779L81 761L139 747H201.5H264.5L332 755L378 770L393 784L395.5 796M374.5 829L371 817.5L359 809L329.5 796L285.5 791L237.5 786.5L178.5 788.5L130.5 795L85.5 805L68 815L62.5 823L60.5 831" stroke="#64748B"/>
<path d="M342.5 2062.5L271.5 1070V1020.5L293 963L355.5 862L352.5 854M352.5 854L363.5 846L371.636 832.5M352.5 854L346.875 849.75M326.5 670.5L380.5 682.5L406 694L423.5 706.5L431 721V734L371.636 832.5M326.5 670.5L258 665H178.5L105 671.328M326.5 670.5V642.5L321.5 635.5L308 625L269.5 616.5L244 614.5L210 613L175.5 614.5L152.5 616.5L135 621L117.5 629L108 640.5L105 650.5V671.328M64 837L1 733.5V724.5L8.5 708.5L40.5 688.5L103 671.5L105 671.328M64 837L67 843L72.5 848.5L81.5 854.5M64 837L69.75 829.25M81.5 854.5L80.5 864L147.5 974.5L159 1006.5L166 1045.5L120.5 2062.5M81.5 854.5L87.75 848.75M84.5 676.532L52.5 663L36 652.5L29.5 641.5V630M29.5 630L40.5 618L79.5 601L111 593.5L159 586L218.5 583.5L294 588L358 602L390 616.5L402 633M29.5 630L32 622.5L42 612L66.5 599L104.5 588L115.967 586M402 633L399.5 646.5L386 658.5L359.5 670.5L350 673.5M402 633L401 626.5L398.5 620L388.5 610L365.5 598.5L336.5 590L315.25 585.75M115.967 586L147.5 580.5L159 579.847M115.967 586L84 576L62 563L55 551.5L59.5 538.5M59.5 538.5L84 522.5L122.5 511L173.5 504L242 502L308 510.5L350 522.5L370 536.5L372.75 543.5M59.5 538.5L62 530L84 516L122.5 504L173.5 497.5L183 497.163M315.25 585.75L294 581.5L269.5 579.573M315.25 585.75L340 578L365.5 564L375.5 550.5L372.75 543.5M372.75 543.5L370 531L350 518L328 509.5L293 500.5L249.5 495.617M269.5 579.573L249.5 578H191.5L159 579.847M269.5 579.573V556.5L257 549.5L238.5 545H203L172.5 550.5L161 556.5L159 579.847M183 497.163L244 495L249.5 495.617M183 497.163V403L189.5 270.5M189.5 270.5L203 226.5M189.5 270.5L201.5 266L221 265L239 270.5H239.5M203 226.5L208 223L218 222.5L225.5 226.5M203 226.5V182M225.5 226.5L239.5 270.5M225.5 226.5L224.513 182M239.5 270.5L249.5 495.617M203 182L206.5 180.5H218L224.513 182M203 182V91.5M224.513 182L222.507 91.5M203 91.5V5L212 1L220.5 4L222.507 91.5M203 91.5L207 89.5L217 89L222.507 91.5M371.636 832.5L364.116 827.113M87.75 848.75L94 843L97 841.967M87.75 848.75L69.75 829.25M69.75 829.25L75.5 821.5L84.5 818.4M97 841.967L84.5 818.4M97 841.967L117.5 834.91M84.5 818.4L102.5 812.2M117.5 834.91L124.5 832.5L140 829.699M117.5 834.91L102.5 812.2M102.5 812.2L120.5 806L132.5 804.8M140 829.699L166 825H171M140 829.699L132.5 804.8M132.5 804.8L166 801.45M171 825L166 801.45M171 825H203.5M166 801.45L190.5 799H203.5M203.5 825H236L240.5 825.284M203.5 825V799M203.5 799H240.5M240.5 825.284V799M240.5 825.284L269.5 827.113M240.5 799H244L277.5 802.026M269.5 827.113L291.5 828.5L301.5 830.708M269.5 827.113L277.5 802.026M277.5 802.026L308.214 804.8M301.5 830.708L308.214 804.8M301.5 830.708L326.5 836.227M308.214 804.8L321.5 806L335.75 811.5M326.5 836.227L330 837L341.25 845.5M326.5 836.227L335.75 811.5M335.75 811.5L350 817L364.116 827.113M341.25 845.5L352.5 821.5M341.25 845.5L346.875 849.75M364.116 827.113L346.875 849.75" stroke="#64748B"/>
<path d="M368 829L431 726M428.5 718.5L364 825.5M360 821L422 705.5M356 821L413.5 699.5M350 815.5L405 693.5M342.5 813L396.5 690.5M333.5 810L385.5 684.5M325.5 807.5L372 681M315.5 804.5L356 677.5M305 803L342.5 674.5M293.5 803L328 671.5M281.5 803L310 669.5M269 801L291 669.5M256.5 801L273 666M244.5 799L253 666M229 799L233.5 666M215 799V664M202 799L196 664M189.5 799L176.5 666M176.5 801L157 666M163.5 801L139 669.5M150.5 803L121.5 669.5M139 803L102.5 671.5M127 804.5L88 677.5M117 807.5L72.5 681M108.5 809.5L59 684M99.5 814L46 687.5M91.5 816L35 692.5M85.5 818.5L26 697.5M78.5 820.5L18 703.5M72.5 824.5L11 707M72.5 828.5L6.5 713.5M67 830.5L3 721M160 911L163.5 916.5L168 918L172.5 916.5L173.5 911L170.5 906L166 904.5L160 907V911ZM173.5 959.5L175.5 964.5L178.5 967.5L182 968.5L186 967.5L188 962L185 956.5L179.5 954L173.5 959.5ZM274 964.5L273 971L274 974L278.5 972L282 968.5L283 963.5L282 960.5L278.5 959.5L274 964.5ZM294.5 925L299 922.5L302.5 919L303.5 916.5L302.5 912.5L300 911.5L296.5 913.5L293.5 916.5L293 922L294.5 925Z" stroke="#64748B"/>
</svg>
