<svg width="153" height="32" viewBox="0 0 153 32" fill="none" xmlns="http://www.w3.org/2000/svg">
<path d="M60.3595 15.6061C60.3595 16.9122 60.1149 18.0308 59.6256 18.962C59.1403 19.8892 58.4774 20.5994 57.637 21.0926C56.8005 21.5859 55.8516 21.8325 54.7902 21.8325C53.7288 21.8325 52.7778 21.5859 51.9374 21.0926C51.1009 20.5955 50.438 19.8833 49.9488 18.956C49.4635 18.0249 49.2208 16.9082 49.2208 15.6061C49.2208 14.3001 49.4635 13.1835 49.9488 12.2562C50.438 11.325 51.1009 10.6128 51.9374 10.1196C52.7778 9.62642 53.7288 9.37981 54.7902 9.37981C55.8516 9.37981 56.8005 9.62642 57.637 10.1196C58.4774 10.6128 59.1403 11.325 59.6256 12.2562C60.1149 13.1835 60.3595 14.3001 60.3595 15.6061ZM58.1519 15.6061C58.1519 14.6868 58.0079 13.9115 57.7198 13.2801C57.4358 12.6449 57.0412 12.1655 56.5361 11.8419C56.0311 11.5144 55.4491 11.3507 54.7902 11.3507C54.1312 11.3507 53.5492 11.5144 53.0442 11.8419C52.5391 12.1655 52.1426 12.6449 51.8546 13.2801C51.5705 13.9115 51.4284 14.6868 51.4284 15.6061C51.4284 16.5255 51.5705 17.3028 51.8546 17.9381C52.1426 18.5694 52.5391 19.0488 53.0442 19.3763C53.5492 19.6998 54.1312 19.8616 54.7902 19.8616C55.4491 19.8616 56.0311 19.6998 56.5361 19.3763C57.0412 19.0488 57.4358 18.5694 57.7198 17.9381C58.0079 17.3028 58.1519 16.5255 58.1519 15.6061ZM62.3408 21.6667V12.5758H64.4182V14.091H64.5129C64.6786 13.5662 64.9627 13.1618 65.3651 12.8777C65.7716 12.5896 66.2352 12.4456 66.756 12.4456C66.8744 12.4456 67.0066 12.4515 67.1526 12.4634C67.3025 12.4713 67.4268 12.4851 67.5254 12.5048V14.4757C67.4347 14.4441 67.2907 14.4165 67.0934 14.3928C66.9 14.3652 66.7126 14.3514 66.5311 14.3514C66.1405 14.3514 65.7893 14.4362 65.4776 14.6059C65.1698 14.7716 64.9272 15.0024 64.7496 15.2984C64.5721 15.5943 64.4833 15.9356 64.4833 16.3223V21.6667H62.3408ZM69.0435 21.6667V9.54553H71.1861V14.0792H71.2748C71.3853 13.8582 71.5412 13.6234 71.7424 13.3748C71.9436 13.1223 72.2159 12.9073 72.5592 12.7297C72.9024 12.5482 73.3404 12.4575 73.8731 12.4575C74.5754 12.4575 75.2087 12.637 75.7729 12.9961C76.3411 13.3512 76.7909 13.8779 77.1224 14.5763C77.4578 15.2708 77.6254 16.123 77.6254 17.1331C77.6254 18.1314 77.4617 18.9797 77.1342 19.6781C76.8067 20.3765 76.3608 20.9092 75.7966 21.2761C75.2324 21.6431 74.5932 21.8265 73.879 21.8265C73.3582 21.8265 72.9261 21.7397 72.5828 21.5661C72.2396 21.3925 71.9634 21.1834 71.7542 20.9388C71.5491 20.6902 71.3893 20.4554 71.2748 20.2345H71.1505V21.6667H69.0435ZM71.1446 17.1213C71.1446 17.7092 71.2275 18.2241 71.3932 18.666C71.5629 19.108 71.8055 19.4532 72.1212 19.7018C72.4408 19.9464 72.8275 20.0687 73.2812 20.0687C73.7547 20.0687 74.1513 19.9425 74.4709 19.6899C74.7905 19.4335 75.0311 19.0843 75.1929 18.6424C75.3586 18.1965 75.4415 17.6895 75.4415 17.1213C75.4415 16.5571 75.3606 16.056 75.1988 15.618C75.0371 15.18 74.7964 14.8367 74.4768 14.5881C74.1572 14.3396 73.7587 14.2153 73.2812 14.2153C72.8235 14.2153 72.4349 14.3356 72.1153 14.5763C71.7957 14.817 71.553 15.1544 71.3873 15.5884C71.2255 16.0224 71.1446 16.5334 71.1446 17.1213ZM79.4469 21.6667V12.5758H81.5894V21.6667H79.4469ZM80.5241 11.2856C80.1847 11.2856 79.8928 11.1731 79.6481 10.9482C79.4035 10.7194 79.2812 10.4452 79.2812 10.1256C79.2812 9.802 79.4035 9.52778 79.6481 9.30287C79.8928 9.07402 80.1847 8.9596 80.5241 8.9596C80.8673 8.9596 81.1593 9.07402 81.4 9.30287C81.6446 9.52778 81.767 9.802 81.767 10.1256C81.767 10.4452 81.6446 10.7194 81.4 10.9482C81.1593 11.1731 80.8673 11.2856 80.5241 11.2856ZM88.3321 12.5758V14.233H83.106V12.5758H88.3321ZM84.3963 10.3978H86.5388V18.9324C86.5388 19.2204 86.5822 19.4414 86.669 19.5953C86.7598 19.7452 86.8781 19.8478 87.0241 19.903C87.1701 19.9583 87.3319 19.9859 87.5094 19.9859C87.6436 19.9859 87.7659 19.976 87.8764 19.9563C87.9908 19.9366 88.0776 19.9188 88.1368 19.903L88.4978 21.578C88.3834 21.6174 88.2197 21.6608 88.0066 21.7082C87.7975 21.7555 87.541 21.7831 87.2372 21.791C86.7006 21.8068 86.2172 21.7259 85.7871 21.5484C85.3571 21.3669 85.0158 21.0867 84.7632 20.7079C84.5147 20.3292 84.3923 19.8557 84.3963 19.2875V10.3978ZM102.473 13.4163C102.374 13.0967 102.238 12.8106 102.065 12.5581C101.895 12.3016 101.69 12.0826 101.449 11.9011C101.212 11.7196 100.94 11.5835 100.632 11.4927C100.325 11.398 99.9892 11.3507 99.6262 11.3507C98.9752 11.3507 98.3952 11.5144 97.8862 11.8419C97.3772 12.1694 96.9767 12.6508 96.6847 13.2861C96.3967 13.9174 96.2526 14.6868 96.2526 15.5943C96.2526 16.5097 96.3967 17.285 96.6847 17.9203C96.9727 18.5556 97.3732 19.0389 97.8862 19.3703C98.3991 19.6978 98.9949 19.8616 99.6736 19.8616C100.289 19.8616 100.822 19.7432 101.272 19.5065C101.725 19.2697 102.075 18.9343 102.319 18.5003C102.564 18.0623 102.686 17.5494 102.686 16.9615L103.183 17.0384H99.8926V15.322H104.811V16.778C104.811 17.8157 104.59 18.7134 104.148 19.471C103.706 20.2285 103.098 20.8125 102.325 21.2229C101.552 21.6293 100.664 21.8325 99.6617 21.8325C98.5451 21.8325 97.5646 21.5819 96.7202 21.0808C95.8798 20.5758 95.2228 19.8596 94.7493 18.9324C94.2798 18.0012 94.045 16.8964 94.045 15.618C94.045 14.6394 94.1831 13.7655 94.4593 12.9961C94.7395 12.2266 95.1301 11.5736 95.6312 11.037C96.1323 10.4964 96.7202 10.0861 97.3949 9.80595C98.0696 9.52186 98.8035 9.37981 99.5966 9.37981C100.267 9.37981 100.893 9.47846 101.473 9.67574C102.053 9.86908 102.568 10.1453 103.018 10.5043C103.471 10.8634 103.844 11.2895 104.136 11.7827C104.428 12.276 104.62 12.8205 104.71 13.4163H102.473ZM106.839 21.6667V12.5758H108.917V14.091H109.012C109.177 13.5662 109.461 13.1618 109.864 12.8777C110.27 12.5896 110.734 12.4456 111.255 12.4456C111.373 12.4456 111.505 12.4515 111.651 12.4634C111.801 12.4713 111.925 12.4851 112.024 12.5048V14.4757C111.933 14.4441 111.789 14.4165 111.592 14.3928C111.399 14.3652 111.211 14.3514 111.03 14.3514C110.639 14.3514 110.288 14.4362 109.976 14.6059C109.669 14.7716 109.426 15.0024 109.248 15.2984C109.071 15.5943 108.982 15.9356 108.982 16.3223V21.6667H106.839ZM117.039 21.8443C116.151 21.8443 115.381 21.649 114.73 21.2584C114.079 20.8677 113.574 20.3213 113.215 19.6189C112.86 18.9166 112.683 18.0959 112.683 17.1568C112.683 16.2177 112.86 15.395 113.215 14.6888C113.574 13.9825 114.079 13.434 114.73 13.0434C115.381 12.6528 116.151 12.4575 117.039 12.4575C117.926 12.4575 118.696 12.6528 119.347 13.0434C119.998 13.434 120.501 13.9825 120.856 14.6888C121.215 15.395 121.395 16.2177 121.395 17.1568C121.395 18.0959 121.215 18.9166 120.856 19.6189C120.501 20.3213 119.998 20.8677 119.347 21.2584C118.696 21.649 117.926 21.8443 117.039 21.8443ZM117.05 20.1279C117.532 20.1279 117.934 19.9957 118.258 19.7314C118.581 19.4631 118.822 19.104 118.98 18.6542C119.142 18.2044 119.223 17.7033 119.223 17.1509C119.223 16.5945 119.142 16.0915 118.98 15.6417C118.822 15.1879 118.581 14.8269 118.258 14.5586C117.934 14.2902 117.532 14.1561 117.05 14.1561C116.557 14.1561 116.147 14.2902 115.819 14.5586C115.496 14.8269 115.253 15.1879 115.091 15.6417C114.934 16.0915 114.855 16.5945 114.855 17.1509C114.855 17.7033 114.934 18.2044 115.091 18.6542C115.253 19.104 115.496 19.4631 115.819 19.7314C116.147 19.9957 116.557 20.1279 117.05 20.1279ZM124.829 21.6667L122.26 12.5758H124.444L126.042 18.9679H126.125L127.759 12.5758H129.919L131.552 18.9324H131.641L133.216 12.5758H135.405L132.831 21.6667H130.6L128.895 15.5233H128.771L127.066 21.6667H124.829ZM141.441 12.5758V14.233H136.215V12.5758H141.441ZM137.505 10.3978H139.648V18.9324C139.648 19.2204 139.691 19.4414 139.778 19.5953C139.869 19.7452 139.987 19.8478 140.133 19.903C140.279 19.9583 140.441 19.9859 140.618 19.9859C140.752 19.9859 140.875 19.976 140.985 19.9563C141.1 19.9366 141.186 19.9188 141.246 19.903L141.607 21.578C141.492 21.6174 141.328 21.6608 141.115 21.7082C140.906 21.7555 140.65 21.7831 140.346 21.791C139.809 21.8068 139.326 21.7259 138.896 21.5484C138.466 21.3669 138.124 21.0867 137.872 20.7079C137.623 20.3292 137.501 19.8557 137.505 19.2875V10.3978ZM145.571 16.34V21.6667H143.428V9.54553H145.523V14.1206H145.63C145.843 13.6076 146.172 13.2032 146.618 12.9073C147.068 12.6074 147.64 12.4575 148.335 12.4575C148.966 12.4575 149.516 12.5896 149.986 12.854C150.455 13.1184 150.818 13.5051 151.075 14.014C151.335 14.523 151.465 15.1445 151.465 15.8784V21.6667H149.323V16.2098C149.323 15.5982 149.165 15.1228 148.849 14.7835C148.538 14.4402 148.1 14.2685 147.535 14.2685C147.157 14.2685 146.817 14.3514 146.518 14.5171C146.222 14.6789 145.989 14.9137 145.819 15.2214C145.653 15.5292 145.571 15.9021 145.571 16.34Z" fill="white"/>
<circle cx="16" cy="16" r="14.4" stroke="white" stroke-width="3.2"/>
<path d="M32 16C32 24.8366 24.8366 32 16 32V16H0C0 7.16344 7.16344 0 16 0C24.8366 0 32 7.16344 32 16Z" fill="white"/>
</svg>
